<svg width="141" height="19" viewBox="0 0 141 19" fill="none" xmlns="http://www.w3.org/2000/svg">
<g id="Text">
<path id="Vector" d="M9.8444 10.873H4.29514L2.90407 14.7533H0.600586L5.89557 0.368164H8.34865L13.6138 14.7533H11.2205L9.8444 10.873ZM4.86355 9.14678H9.276L7.10717 2.83213L4.86355 9.14678Z" fill="white"/>
<path id="Vector_2" d="M24.9524 9.51682C24.9524 12.7774 23.1875 14.8725 20.4652 14.8725C19.7873 14.9075 19.1132 14.7529 18.5204 14.4266C17.9277 14.1004 17.4404 13.6156 17.1146 13.0283V18.2365H14.9458V4.26436H17.0548V6.00534C17.4008 5.42561 17.8987 4.94844 18.4961 4.62401C19.0936 4.29947 19.7685 4.13955 20.4501 4.1611C23.1724 4.1611 24.9524 6.19718 24.9524 9.51682ZM22.7088 9.51682C22.7088 7.39225 21.6019 5.99057 19.8968 5.99057C18.1916 5.99057 17.1146 7.46598 17.1146 9.51682C17.1146 11.5676 18.2364 13.043 19.8968 13.043C21.5571 13.043 22.7088 11.6562 22.7088 9.51682Z" fill="white"/>
<path id="Vector_3" d="M36.6639 9.51711C36.6639 12.7777 34.8989 14.8728 32.1766 14.8728C31.5013 14.9049 30.8303 14.749 30.2405 14.4229C29.6507 14.0968 29.1658 13.6136 28.841 13.0285V18.2367H26.6423V4.26464H28.7663V6.00562C29.1112 5.4248 29.6087 4.94683 30.2064 4.6221C30.8041 4.29746 31.4797 4.13824 32.1617 4.16139C34.884 4.16139 36.6639 6.19747 36.6639 9.51711ZM34.4203 9.51711C34.4203 7.39254 33.3135 5.99086 31.6083 5.99086C29.903 5.99086 28.8261 7.46626 28.8261 9.51711C28.8261 11.5679 29.948 13.0433 31.6083 13.0433C33.2685 13.0433 34.4203 11.6564 34.4203 9.51711Z" fill="white"/>
<path id="Vector_4" d="M38.4285 0.368164H40.6122V14.7534H38.4285V0.368164Z" fill="white"/>
<path id="Vector_5" d="M51.9802 11.6697C51.7423 12.6621 51.147 13.5355 50.305 14.1272C49.463 14.7188 48.4317 14.9886 47.4031 14.8861C44.3069 14.8861 42.3923 12.8353 42.3923 9.55992C42.3923 6.28447 44.3218 4.13037 47.3133 4.13037C50.3048 4.13037 52.1147 6.19598 52.1147 9.30901V10.0468H44.636V10.1796C44.6038 10.565 44.6551 10.9528 44.7864 11.3173C44.9177 11.6817 45.1261 12.0144 45.3976 12.2934C45.6691 12.5725 45.9977 12.7914 46.3615 12.9356C46.7253 13.0799 47.116 13.1463 47.5077 13.1304C48.0235 13.1795 48.5414 13.0622 48.9837 12.7962C49.4261 12.5301 49.7689 12.1296 49.9608 11.655L51.9802 11.6697ZM44.606 8.54183H49.916C49.9368 8.19525 49.8844 7.84817 49.7622 7.52254C49.64 7.19691 49.4505 6.89992 49.2058 6.65031C48.9612 6.4006 48.6667 6.20376 48.3409 6.07227C48.0152 5.94069 47.6653 5.87734 47.3133 5.88611C46.958 5.88222 46.6054 5.94807 46.2761 6.07996C45.9468 6.21184 45.6474 6.40708 45.3955 6.6543C45.1434 6.90151 44.9439 7.19571 44.8083 7.51975C44.6728 7.84388 44.604 8.19126 44.606 8.54183Z" fill="white"/>
<path id="Vector_6" d="M63.7371 0.368955C64.3748 0.33739 65.0114 0.437782 65.608 0.663677C66.2036 0.889583 66.745 1.23597 67.1972 1.68062C67.6494 2.12527 68.0023 2.65841 68.2339 3.24552C68.4646 3.83273 68.5678 4.46114 68.5377 5.09025C68.5658 5.72654 68.4585 6.36164 68.2229 6.95463C67.9873 7.54753 67.6283 8.08516 67.1681 8.5327C66.7089 8.98034 66.1595 9.32801 65.5559 9.55338C64.9513 9.77865 64.3066 9.87672 63.6619 9.841H60.5356V14.7542H58.2476V0.368955H63.7371ZM60.5356 7.96724H63.1234C63.5265 8.02081 63.9356 7.9852 64.3226 7.86318C64.7096 7.74107 65.0646 7.53556 65.3603 7.26151C65.6571 6.98746 65.8877 6.65175 66.0361 6.27873C66.1855 5.90572 66.2477 5.50477 66.2196 5.10501C66.2477 4.70715 66.1855 4.3081 66.0381 3.93688C65.8898 3.56556 65.6601 3.23155 65.3654 2.95879C65.0706 2.68614 64.7177 2.48172 64.3316 2.36041C63.9466 2.2391 63.5395 2.20388 63.1385 2.25745H60.5356V7.96724Z" fill="white"/>
<path id="Vector_7" d="M69.3308 9.51562C69.3308 6.21075 71.305 4.13037 74.3862 4.13037C77.4673 4.13037 79.4275 6.21075 79.4275 9.51562C79.4275 12.8205 77.4824 14.8861 74.3862 14.8861C71.29 14.8861 69.3308 12.8205 69.3308 9.51562ZM77.1986 9.51562C77.1986 7.2435 76.1518 5.91565 74.3862 5.91565C72.6215 5.91565 71.5597 7.25827 71.5597 9.51562C71.5597 11.773 72.6065 13.1156 74.3862 13.1156C76.1659 13.1156 77.1986 11.7877 77.1986 9.51562Z" fill="white"/>
<path id="Vector_8" d="M80.9678 9.51568C80.9678 6.26976 82.7786 4.15996 85.4556 4.15996C86.1314 4.12614 86.8032 4.28127 87.3928 4.6075C87.9833 4.93383 88.4676 5.41798 88.7914 6.00419V0.368164H90.9752V14.7534H88.8506V12.9681C88.5257 13.57 88.0344 14.0684 87.4328 14.4054C86.8323 14.7423 86.1465 14.9039 85.4556 14.8714C82.7786 14.8714 80.9678 12.7468 80.9678 9.51568ZM83.1967 9.51568C83.1967 11.6698 84.3036 13.0418 86.0091 13.0418C87.7146 13.0418 88.8065 11.6402 88.8065 9.51568C88.8065 7.39111 87.6845 5.98943 86.0091 5.98943C84.3337 5.98943 83.1967 7.37634 83.1967 9.51568Z" fill="white"/>
<path id="Vector_9" d="M100.279 7.8797C100.182 7.30486 99.8704 6.78679 99.4052 6.42853C98.939 6.07038 98.3544 5.89839 97.7659 5.94687C96.0905 5.94687 94.9685 7.33379 94.9685 9.51742C94.9685 11.701 96.0905 13.0879 97.7799 13.0879C98.3595 13.1447 98.939 12.9831 99.4032 12.6354C99.8664 12.2879 100.179 11.78 100.279 11.2141H102.372C102.241 12.2976 101.685 13.2877 100.825 13.9739C99.9647 14.6599 98.8668 14.9879 97.7659 14.8878C94.774 14.8878 92.7546 12.8371 92.7546 9.51742C92.7546 6.19778 94.7289 4.13217 97.7508 4.13217C98.8618 4.04109 99.9657 4.38188 100.827 5.08192C101.687 5.78196 102.237 6.78589 102.357 7.8797H100.279Z" fill="white"/>
<path id="Vector_10" d="M103.719 11.7744C103.719 9.94485 105.14 8.82361 107.667 8.69082L110.584 8.52851V7.67283C110.584 6.50719 109.806 5.84326 108.475 5.84326C107.985 5.78041 107.489 5.89544 107.079 6.167C106.669 6.43845 106.373 6.84778 106.246 7.31867H104.197C104.197 5.43014 106.052 4.07275 108.534 4.07275C111.018 4.07275 112.753 5.44491 112.753 7.51052V14.7547H110.599V13.0285C110.262 13.6137 109.772 14.0989 109.18 14.4337C108.588 14.7684 107.916 14.9404 107.233 14.9317C106.788 14.9728 106.339 14.9217 105.915 14.7817C105.489 14.6417 105.099 14.416 104.77 14.1188C104.439 13.8216 104.174 13.4596 103.992 13.0559C103.812 12.6522 103.719 12.2158 103.719 11.7744ZM110.584 10.8302V10.0187L107.966 10.181C106.651 10.2547 105.918 10.8154 105.918 11.6564C105.918 12.4973 106.68 13.1318 107.862 13.1318C108.195 13.158 108.529 13.1192 108.847 13.0178C109.165 12.9163 109.46 12.7541 109.714 12.5403C109.968 12.3266 110.177 12.0655 110.329 11.7721C110.481 11.4786 110.573 11.1586 110.599 10.8302H110.584Z" fill="white"/>
<path id="Vector_11" d="M118.841 4.14453C121.204 4.14453 122.894 5.42819 122.938 7.28719H120.89C120.8 6.35769 120.008 5.81178 118.78 5.81178C117.554 5.81178 116.821 6.34293 116.821 7.15441C116.821 7.96588 117.345 8.20193 118.437 8.48226L120.231 8.88062C122.371 9.397 123.223 10.1789 123.223 11.7134C123.223 13.6019 121.413 14.9003 118.735 14.9003C116.058 14.9003 114.547 13.6314 114.383 11.7134H116.582C116.746 12.7314 117.554 13.2625 118.886 13.2625C120.216 13.2625 121.009 12.7314 121.009 11.9052C121.009 11.079 120.605 10.9019 119.513 10.6216L117.614 10.1642C115.699 9.70686 114.727 8.68877 114.727 7.28719C114.683 5.41343 116.372 4.14453 118.841 4.14453Z" fill="white"/>
<path id="Vector_12" d="M127.936 1.77002V4.24875H129.955V5.9602H127.936V11.7438C127.936 12.6438 128.339 13.0569 129.222 13.0569H129.94V14.7536C129.54 14.8226 129.134 14.8522 128.728 14.8422C126.574 14.8422 125.737 14.0455 125.737 12.0094V5.97496H124.241V4.26352H125.737V1.77002H127.936Z" fill="white"/>
<path id="Vector_13" d="M135.818 4.14453C138.182 4.14453 139.871 5.42819 139.916 7.28719H137.867C137.778 6.35769 136.985 5.81178 135.758 5.81178C134.531 5.81178 133.798 6.34293 133.798 7.15441C133.798 7.96588 134.323 8.20193 135.414 8.48226L137.209 8.88062C139.348 9.397 140.2 10.1789 140.2 11.7134C140.2 13.6019 138.39 14.9003 135.788 14.9003C133.186 14.9003 131.54 13.5724 131.391 11.6986H133.545C133.709 12.7166 134.517 13.2478 135.848 13.2478C137.179 13.2478 137.972 12.7166 137.972 11.8904C137.972 11.0642 137.568 10.8872 136.476 10.6068L134.531 10.1495C132.617 9.6921 131.645 8.67411 131.645 7.27243C131.66 5.41343 133.35 4.14453 135.818 4.14453Z" fill="white"/>
</g>
</svg>
