<svg width="68" height="22" viewBox="0 0 68 22" fill="none" xmlns="http://www.w3.org/2000/svg">
<path id="Vector" d="M0.465576 8.78664C0.465576 4.14672 4.42499 0.386719 9.15003 0.386719C11.757 0.386719 13.6145 1.39471 15.0158 2.70671L13.3538 4.3227C12.3599 3.3947 11.0075 2.67471 9.15003 2.67471C5.71212 2.67471 3.02374 5.39466 3.02374 8.77067C3.02374 12.1467 5.71212 14.8666 9.15003 14.8666C11.3823 14.8666 12.6532 13.9866 13.4679 13.1866C14.1359 12.5307 14.5759 11.5867 14.7387 10.3066H9.15003V8.01865H17.0198C17.1013 8.43467 17.1502 8.91463 17.1502 9.45865C17.1502 11.1867 16.6777 13.3146 15.1298 14.8187C13.6145 16.3546 11.6919 17.1706 9.15003 17.1706C4.42499 17.1706 0.465576 13.4107 0.465576 8.78664ZM23.4232 6.46673C26.4701 6.46673 28.9467 8.73865 28.9467 11.8746C28.9467 14.9946 26.4701 17.2826 23.4232 17.2826C20.3763 17.2826 17.8997 14.9946 17.8997 11.8746C17.8997 8.73865 20.3763 6.46673 23.4232 6.46673ZM23.4232 15.1386C25.0852 15.1386 26.5353 13.7947 26.5353 11.8587C26.5353 9.90669 25.0852 8.57873 23.4232 8.57873C21.745 8.57873 20.3112 9.90669 20.3112 11.8587C20.3112 13.7947 21.7613 15.1386 23.4232 15.1386ZM35.4805 6.46673C38.5273 6.46673 41.004 8.73865 41.004 11.8746C41.004 14.9946 38.5273 17.2826 35.4805 17.2826C32.4335 17.2826 29.957 14.9946 29.957 11.8746C29.957 8.73865 32.4335 6.46673 35.4805 6.46673ZM35.4805 15.1386C37.1424 15.1386 38.5925 13.7947 38.5925 11.8587C38.5925 9.90669 37.1587 8.57873 35.4805 8.57873C33.8022 8.57873 32.3684 9.90669 32.3684 11.8587C32.3684 13.7947 33.8185 15.1386 35.4805 15.1386ZM50.275 6.64271H52.5887V16.3546C52.5887 20.3547 50.1935 21.9866 47.3584 21.9866C44.6863 21.9866 43.0732 20.2267 42.4704 18.7867L44.5722 17.9226C44.947 18.8026 45.8595 19.8427 47.3421 19.8427C49.1507 19.8427 50.275 18.7387 50.275 16.6747V15.8906H50.1935C49.6558 16.5467 48.613 17.1226 47.2932 17.1226C44.5397 17.1226 42.0142 14.7546 42.0142 11.7307C42.0142 8.6747 44.5397 6.30671 47.2932 6.30671C48.613 6.30671 49.6558 6.88264 50.1935 7.52273H50.275V6.64271ZM47.505 14.9946C49.1507 14.9946 50.4542 13.6347 50.4379 11.7307C50.4379 9.82667 49.1507 8.43467 47.505 8.43467C45.8431 8.43467 44.4419 9.82667 44.4419 11.7307C44.4419 13.6187 45.8431 14.9946 47.505 14.9946ZM54.2344 16.9146V1.02671H56.6455V16.9146H54.2344ZM63.2776 15.1386C64.5154 15.1386 65.3624 14.5466 65.9979 13.6506L67.8722 14.8826C67.2529 15.7626 65.8026 17.2826 63.2776 17.2826C60.1484 17.2826 57.8189 14.8987 57.8189 11.8746C57.8189 8.65864 60.1816 6.46673 63.0168 6.46673C65.868 6.46673 67.269 8.69066 67.7252 9.90669L67.9699 10.5146L60.6046 13.5067C61.1757 14.5786 62.0388 15.1386 63.2776 15.1386ZM63.0984 8.5467C61.8596 8.5467 60.1484 9.61867 60.2139 11.6986L65.1348 9.69868C64.874 9.01071 64.0592 8.5467 63.0984 8.5467Z" fill="white"/>
</svg>
