<svg width="80" height="16" viewBox="0 0 80 16" fill="none" xmlns="http://www.w3.org/2000/svg">
<path id="Vector" fill-rule="evenodd" clip-rule="evenodd" d="M2.25065 14.8658H0.332031V0.202148H5.42116C6.68615 0.202148 7.78091 0.61516 8.70548 1.44114C9.63004 2.26718 10.0923 3.30822 10.0923 4.56434C10.0923 5.82047 9.63004 6.8615 8.70548 7.68755C7.78091 8.51359 6.68615 8.92662 5.42116 8.92662H2.25065V14.8658ZM2.25065 7.12438H5.46246C6.26919 7.12438 6.91578 6.85811 7.40223 6.32567C7.88869 5.79313 8.13241 5.20602 8.13241 4.56434C8.13241 3.92266 7.88869 3.33555 7.40223 2.80311C6.91578 2.27057 6.26919 2.0044 5.46246 2.0044H2.25065V7.12438ZM11.6836 6.03895C12.6706 5.01488 13.9286 4.50289 15.4584 4.50289C16.9883 4.50289 18.2462 5.01148 19.2332 6.02868C20.2202 7.04587 20.7137 8.31896 20.7137 9.84814C20.7137 11.3773 20.2202 12.6505 19.2332 13.6677C18.2462 14.6849 16.9883 15.1934 15.4584 15.1934C13.9286 15.1934 12.6706 14.6849 11.6836 13.6677C10.6966 12.6505 10.2031 11.3773 10.2031 9.84814C10.2031 8.31896 10.6966 7.04926 11.6836 6.03895ZM13.1017 12.4901C13.7694 13.1454 14.555 13.4732 15.4584 13.4732C16.3618 13.4732 17.1444 13.142 17.8051 12.4798C18.4648 11.8177 18.7951 10.9405 18.7951 9.84814C18.7951 8.75592 18.4648 7.8787 17.8051 7.21646C17.1444 6.55433 16.3618 6.22322 15.4584 6.22322C14.555 6.22322 13.7725 6.55433 13.1118 7.21646C12.4521 7.8787 12.1217 8.75592 12.1217 9.84814C12.1217 10.9405 12.4481 11.8211 13.1017 12.4901ZM26.4968 15.1934C25.1764 15.1934 24.0363 14.6814 23.0765 13.6574C22.1177 12.6334 21.6373 11.3636 21.6373 9.84814C21.6373 8.33262 22.1177 7.06293 23.0765 6.03895C24.0363 5.01488 25.1764 4.50289 26.4968 4.50289C27.2753 4.50289 27.9743 4.6668 28.5927 4.99443C29.2121 5.32215 29.6744 5.73168 29.9795 6.22322H30.0631L29.9795 4.83061V0.202148H31.8992V14.8658H30.0631V13.4732H29.9795C29.6744 13.9646 29.2121 14.3742 28.5927 14.7019C27.9743 15.0296 27.2753 15.1934 26.4968 15.1934ZM26.81 13.4732C27.7134 13.4732 28.4819 13.1454 29.1144 12.4901C29.7469 11.8347 30.0631 10.9541 30.0631 9.84814C30.0631 8.74225 29.7469 7.86164 29.1144 7.20629C28.4819 6.55094 27.7134 6.22322 26.81 6.22322C25.9197 6.22322 25.1553 6.55433 24.5157 7.21646C23.8762 7.8787 23.5559 8.75592 23.5559 9.84814C23.5559 10.9405 23.8762 11.8177 24.5157 12.4798C25.1553 13.142 25.9197 13.4732 26.81 13.4732ZM38.5574 15.1934C37.0286 15.1934 35.7696 14.6849 34.7826 13.6677C33.7956 12.6505 33.3021 11.3773 33.3021 9.84814C33.3021 8.31896 33.7956 7.04587 34.7826 6.02868C35.7696 5.01148 37.0286 4.50289 38.5574 4.50289C39.6975 4.50289 40.6432 4.77594 41.3936 5.32215C42.1449 5.86826 42.6938 6.55772 43.0413 7.39055L41.2898 8.10736C40.7611 6.85123 39.8093 6.22322 38.4325 6.22322C37.5845 6.22322 36.8372 6.56461 36.1906 7.24719C35.544 7.92988 35.2207 8.79682 35.2207 9.84814C35.2207 10.8994 35.544 11.7665 36.1906 12.4491C36.8372 13.1318 37.5845 13.4732 38.4325 13.4732C39.8647 13.4732 40.8517 12.845 41.3936 11.589L43.1037 12.3057C42.7562 13.125 42.1973 13.8111 41.4248 14.3639C40.6533 14.9169 39.6975 15.1934 38.5574 15.1934ZM47.656 15.1934C46.5723 15.1934 45.6649 14.8862 44.9347 14.2719C44.2045 13.6574 43.8399 12.845 43.8399 11.8347C43.8399 10.7424 44.271 9.88575 45.1331 9.26452C45.9952 8.64329 47.0588 8.33262 48.3238 8.33262C49.4498 8.33262 50.3743 8.53744 51.0975 8.94707V8.66035C51.0975 7.92309 50.8406 7.33259 50.326 6.88884C49.8113 6.44509 49.1788 6.22322 48.4285 6.22322C47.8716 6.22322 47.368 6.35291 46.9158 6.61239C46.4646 6.87178 46.1554 7.22674 45.9882 7.67727L44.2357 6.94002C44.4724 6.33924 44.9387 5.78296 45.6337 5.27097C46.3286 4.75888 47.2461 4.50289 48.3862 4.50289C49.6935 4.50289 50.7782 4.8784 51.6403 5.62932C52.5024 6.38024 52.9335 7.43834 52.9335 8.80371V14.8658H51.0975V13.4732H51.0139C50.2494 14.62 49.1305 15.1934 47.656 15.1934ZM47.9692 13.4732C48.7619 13.4732 49.481 13.1829 50.1276 12.6027C50.7742 12.0225 51.0975 11.3364 51.0975 10.5445C50.5556 10.1076 49.7418 9.88914 48.6571 9.88914C47.7255 9.88914 47.0235 10.0871 46.5512 10.483C46.0788 10.879 45.8421 11.3432 45.8421 11.8756C45.8421 12.3672 46.0577 12.7564 46.4887 13.0431C46.9198 13.3298 47.4133 13.4732 47.9692 13.4732ZM58.5494 15.1934C57.4093 15.1934 56.4666 14.9203 55.7233 14.3742C54.979 13.8281 54.4331 13.1454 54.0857 12.3263L55.7958 11.6299C56.3387 12.886 57.2632 13.5141 58.5695 13.5141C59.1678 13.5141 59.6582 13.3844 60.0399 13.125C60.4227 12.8656 60.614 12.5242 60.614 12.101C60.614 11.4456 60.1477 11.0019 59.2161 10.7698L57.1514 10.2782C56.4978 10.1144 55.8794 9.80384 55.2953 9.34642C54.7121 8.88901 54.4201 8.27127 54.4201 7.49301C54.4201 6.60551 54.8189 5.88532 55.6185 5.33232C56.4182 4.77943 57.367 4.50289 58.4658 4.50289C59.3692 4.50289 60.1759 4.70431 60.8849 5.10706C61.594 5.5099 62.1016 6.08674 62.4078 6.83766L60.7389 7.51346C60.3632 6.62596 59.5847 6.18231 58.4033 6.18231C57.8333 6.18231 57.3529 6.29834 56.9641 6.53039C56.5743 6.76254 56.38 7.0766 56.38 7.47246C56.38 8.0459 56.8322 8.43508 57.7356 8.6399L59.759 9.11088C60.7178 9.32936 61.4268 9.70477 61.8861 10.2373C62.3453 10.7698 62.5739 11.3705 62.5739 12.0395C62.5739 12.9406 62.1993 13.6915 61.4479 14.2923C60.6976 14.8931 59.7307 15.1934 58.5494 15.1934ZM68.3157 15.0296C67.2451 15.0296 66.4283 14.7497 65.8653 14.19C65.3013 13.6301 65.0203 12.8383 65.0203 11.8143V6.55094H63.2266V4.83061H65.0203V1.75858H66.9389V4.83061H69.4417V6.55094H66.9389V11.6709C66.9389 12.7631 67.3982 13.3092 68.3157 13.3092C68.6632 13.3092 68.9552 13.2547 69.1909 13.1454L69.8587 14.7633C69.4417 14.9409 68.927 15.0296 68.3157 15.0296ZM75.0364 15.1934C73.8963 15.1934 72.9546 14.9203 72.2114 14.3742C71.4671 13.8281 70.9212 13.1454 70.5737 12.3263L72.2839 11.6299C72.8257 12.886 73.7503 13.5141 75.0576 13.5141C75.6558 13.5141 76.1453 13.3844 76.528 13.125C76.9107 12.8656 77.1011 12.5242 77.1011 12.101C77.1011 11.4456 76.6358 11.0019 75.7042 10.7698L73.6395 10.2782C72.9859 10.1144 72.3675 9.80384 71.7833 9.34642C71.1992 8.88901 70.9071 8.27127 70.9071 7.49301C70.9071 6.60551 71.3069 5.88532 72.1066 5.33232C72.9063 4.77943 73.855 4.50289 74.9538 4.50289C75.8572 4.50289 76.664 4.70431 77.373 5.10706C78.082 5.5099 78.5896 6.08674 78.8948 6.83766L77.227 7.51346C76.8513 6.62596 76.0728 6.18231 74.8904 6.18231C74.3203 6.18231 73.8409 6.29834 73.4522 6.53039C73.0624 6.76254 72.868 7.0766 72.868 7.47246C72.868 8.0459 73.3192 8.43508 74.2236 8.6399L76.246 9.11088C77.2058 9.32936 77.9149 9.70477 78.3741 10.2373C78.8324 10.7698 79.062 11.3705 79.062 12.0395C79.062 12.9406 78.6863 13.6915 77.936 14.2923C77.1847 14.8931 76.2188 15.1934 75.0364 15.1934Z" fill="white"/>
</svg>
