<svg width="121" height="21" viewBox="0 0 121 21" fill="none" xmlns="http://www.w3.org/2000/svg">
<g id="Stars">
<path id="Star 1" d="M10.5 0L12.8574 7.25532H20.4861L14.3143 11.7394L16.6717 18.9947L10.5 14.5106L4.32825 18.9947L6.68565 11.7394L0.513906 7.25532H8.1426L10.5 0Z" fill="#FF7602"/>
<path id="Star 2" d="M35.5 0L37.8574 7.25532H45.4861L39.3143 11.7394L41.6717 18.9947L35.5 14.5106L29.3283 18.9947L31.6857 11.7394L25.5139 7.25532H33.1426L35.5 0Z" fill="#FF7602"/>
<path id="Star 3" d="M60.5 0L62.8574 7.25532H70.4861L64.3143 11.7394L66.6717 18.9947L60.5 14.5106L54.3283 18.9947L56.6857 11.7394L50.5139 7.25532H58.1426L60.5 0Z" fill="#FF7602"/>
<path id="Star 4" d="M85.5 0L87.8574 7.25532H95.4861L89.3143 11.7394L91.6717 18.9947L85.5 14.5106L79.3283 18.9947L81.6857 11.7394L75.5139 7.25532H83.1426L85.5 0Z" fill="#FF7602"/>
<path id="Star 5" d="M110.5 0L112.857 7.25532H120.486L114.314 11.7394L116.672 18.9947L110.5 14.5106L104.328 18.9947L106.686 11.7394L100.514 7.25532H108.143L110.5 0Z" fill="#FF7602"/>
</g>
</svg>
